<svg width="23" height="28" viewBox="0 0 23 28" fill="none" xmlns="http://www.w3.org/2000/svg">
<path d="M5.47202 19.2993C4.65416 19.2993 3.78648 19.8494 3.15069 20.7716C2.68524 21.4455 2.40355 22.2368 2.35753 23.0009C2.30815 23.8229 2.53291 24.5181 2.98997 24.9603C3.29385 25.2546 3.67975 25.4091 4.10626 25.4091C4.9237 25.4091 5.79179 24.8589 6.42802 23.9379C7.41998 22.5008 7.49199 20.6216 6.58874 19.7481C6.28443 19.4543 5.89853 19.2993 5.47202 19.2993ZM5.84412 23.3742C5.35689 24.0793 4.69097 24.5176 4.10626 24.5176C3.85219 24.5176 3.63663 24.4345 3.46671 24.27C3.20467 24.0174 3.07787 23.5891 3.10927 23.0647C3.144 22.4823 3.36628 21.8684 3.73459 21.3355C4.22138 20.6294 4.88731 20.1911 5.47202 20.1911C5.72609 20.1911 5.94165 20.2742 6.11157 20.4387C6.68371 20.9908 6.56112 22.3353 5.84412 23.3742Z" fill="#554F4F"/>
<path d="M19.8491 20.7716C19.2137 19.85 18.3457 19.2993 17.5278 19.2993C17.1017 19.2993 16.7154 19.4538 16.4116 19.748C15.5084 20.6215 15.5803 22.5007 16.5723 23.9378C17.2081 24.8583 18.0766 25.409 18.894 25.409C19.3201 25.409 19.7064 25.2545 20.0103 24.9602C20.4673 24.518 20.6921 23.8229 20.6428 23.0008C20.5963 22.2368 20.3147 21.4455 19.8491 20.7716ZM19.5336 24.2695C19.3636 24.434 19.1481 24.5171 18.894 24.5171C18.3089 24.5171 17.6434 24.0789 17.1562 23.3738C16.4392 22.3348 16.3165 20.9909 16.8883 20.4383C17.0583 20.2739 17.2738 20.1907 17.5278 20.1907C18.1126 20.1907 18.7785 20.6289 19.2653 21.3351C19.6336 21.8679 19.8559 22.4819 19.8906 23.0643C19.9224 23.5887 19.7956 24.0175 19.5336 24.2695Z" fill="#554F4F"/>
<path d="M11.5211 13.0039C11.0606 13.0039 10.686 13.4471 10.686 13.9923C10.686 14.537 11.0611 14.9798 11.5211 14.9798C11.9819 14.9798 12.3565 14.5365 12.3565 13.9923C12.3565 13.4471 11.9819 13.0039 11.5211 13.0039ZM11.4399 13.9924C11.4399 13.9383 11.4763 13.8958 11.5211 13.8958C11.5658 13.8958 11.6027 13.9384 11.6027 13.9924C11.6027 14.0988 11.4399 14.0988 11.4399 13.9924Z" fill="#554F4F"/>
<path d="M21.7561 19.5428C21.6674 19.4229 19.5545 16.6033 17.2017 16.6033C16.7777 16.6033 16.37 16.6955 15.9854 16.8782L13.6093 13.8926L20.8775 4.57618C20.8872 4.56378 20.896 4.55092 20.9047 4.53756C22.2215 2.41872 21.0763 0.307154 21.0269 0.21803C20.9679 0.111567 20.8737 0.0412468 20.7674 0.0219397L20.6653 0.00464569C20.543 -0.0146614 20.42 0.0338809 20.3358 0.139841L11.4997 11.2429L2.66438 0.139795C2.5798 0.0343384 2.45551 -0.0152104 2.33497 0.00409667L2.23284 0.0229463C2.12653 0.0412011 2.03194 0.113077 1.97336 0.219037C1.92355 0.307154 0.779219 2.41808 2.0956 4.53756C2.10395 4.55092 2.11273 4.56332 2.12236 4.57618L9.3902 13.8926L7.01407 16.8782C6.6294 16.6955 6.22173 16.6033 5.79773 16.6033C3.44543 16.6033 1.33214 19.4224 1.23168 19.5601C0.258507 21.013 -0.140776 22.4663 0.0438033 23.8816C0.322161 26.0114 1.82853 27.2365 1.92649 27.3122C2.6527 27.7678 3.39272 28 4.12515 28C6.15266 28 7.42592 26.2569 7.46316 26.2039C9.79621 23.3477 9.8251 19.6892 9.79285 18.7851L11.4997 16.5974L13.2066 18.7851C13.1744 19.6893 13.2016 23.3452 15.5204 26.1837C15.5736 26.257 16.8473 28 18.8743 28C19.6067 28 20.3468 27.7678 21.1073 27.2879C21.1709 27.2365 22.6777 26.0114 22.9561 23.8816C23.1411 22.4669 22.7413 21.013 21.7561 19.5428ZM22.2128 23.7375C21.9901 25.4677 20.7151 26.5249 20.7198 26.5249C20.7198 26.5249 20.7198 26.5249 20.7203 26.5249C20.1033 26.9116 19.483 27.1082 18.8748 27.1082C17.2044 27.1082 16.1056 25.6206 16.0788 25.585C13.6989 22.6709 13.9651 18.702 13.968 18.6623C13.9776 18.5374 13.9416 18.4127 13.8697 18.3211L11.7769 15.6381C11.7057 15.546 11.6053 15.4941 11.5002 15.4941C11.3952 15.4941 11.2947 15.5461 11.2236 15.6381L9.13079 18.3211C9.05882 18.4132 9.02282 18.538 9.03245 18.6623C9.03539 18.7019 9.30118 22.6713 6.90533 25.6062C6.89485 25.6216 5.80829 27.1081 4.1257 27.1081C3.51755 27.1081 2.89641 26.912 2.31459 26.549C2.3016 26.5387 1.01747 25.4948 0.788926 23.7453C0.637411 22.5855 0.985222 21.3639 1.81063 20.13C1.83031 20.1037 3.78415 17.4945 5.79824 17.4945C6.19965 17.4945 6.5818 17.602 6.93464 17.8129C7.08283 17.9021 7.26404 17.865 7.37917 17.7208L10.1801 14.2015C10.3158 14.0311 10.3166 13.7662 10.1827 13.5939L2.69075 3.98992C2.00016 2.86137 2.21904 1.7319 2.42245 1.13617L11.2256 12.1986C11.3679 12.3774 11.632 12.3774 11.7743 12.1986L20.5762 1.13763C20.7775 1.73432 20.9951 2.86882 20.3091 3.98992L12.8178 13.5941C12.6838 13.7664 12.6847 14.0313 12.8202 14.2016L15.6213 17.7209C15.7364 17.865 15.918 17.9027 16.0658 17.8131C16.4186 17.6022 16.8008 17.4946 17.2022 17.4946C19.2113 17.4946 21.17 20.1043 21.178 20.1137C22.0135 21.3611 22.3617 22.5797 22.2128 23.7375Z" fill="#554F4F"/>
</svg>
