<svg width="19" height="20" viewBox="0 0 19 20" fill="none" xmlns="http://www.w3.org/2000/svg">
<path d="M15.7503 2.66671H13.917V1.75004C13.917 1.50693 13.8204 1.27377 13.6485 1.10186C13.4766 0.929951 13.2434 0.833374 13.0003 0.833374C12.7572 0.833374 12.5241 0.929951 12.3521 1.10186C12.1802 1.27377 12.0837 1.50693 12.0837 1.75004V2.66671H6.58366V1.75004C6.58366 1.50693 6.48708 1.27377 6.31517 1.10186C6.14327 0.929951 5.91011 0.833374 5.66699 0.833374C5.42388 0.833374 5.19072 0.929951 5.01881 1.10186C4.8469 1.27377 4.75033 1.50693 4.75033 1.75004V2.66671H2.91699C2.18765 2.66671 1.48817 2.95644 0.972449 3.47216C0.456724 3.98789 0.166992 4.68736 0.166992 5.41671V16.4167C0.166992 17.1461 0.456724 17.8455 0.972449 18.3613C1.48817 18.877 2.18765 19.1667 2.91699 19.1667H15.7503C16.4797 19.1667 17.1791 18.877 17.6949 18.3613C18.2106 17.8455 18.5003 17.1461 18.5003 16.4167V5.41671C18.5003 4.68736 18.2106 3.98789 17.6949 3.47216C17.1791 2.95644 16.4797 2.66671 15.7503 2.66671ZM16.667 16.4167C16.667 16.6598 16.5704 16.893 16.3985 17.0649C16.2266 17.2368 15.9934 17.3334 15.7503 17.3334H2.91699C2.67388 17.3334 2.44072 17.2368 2.26881 17.0649C2.0969 16.893 2.00033 16.6598 2.00033 16.4167V10H16.667V16.4167ZM16.667 8.16671H2.00033V5.41671C2.00033 5.17359 2.0969 4.94043 2.26881 4.76853C2.44072 4.59662 2.67388 4.50004 2.91699 4.50004H4.75033V5.41671C4.75033 5.65982 4.8469 5.89298 5.01881 6.06489C5.19072 6.2368 5.42388 6.33337 5.66699 6.33337C5.91011 6.33337 6.14327 6.2368 6.31517 6.06489C6.48708 5.89298 6.58366 5.65982 6.58366 5.41671V4.50004H12.0837V5.41671C12.0837 5.65982 12.1802 5.89298 12.3521 6.06489C12.5241 6.2368 12.7572 6.33337 13.0003 6.33337C13.2434 6.33337 13.4766 6.2368 13.6485 6.06489C13.8204 5.89298 13.917 5.65982 13.917 5.41671V4.50004H15.7503C15.9934 4.50004 16.2266 4.59662 16.3985 4.76853C16.5704 4.94043 16.667 5.17359 16.667 5.41671V8.16671Z" fill="#545252" fill-opacity="0.82"/>
</svg>
