<svg width="22" height="22" viewBox="0 0 22 22" fill="none" xmlns="http://www.w3.org/2000/svg">
<path d="M20.3332 19.1667V9.25004C20.3332 9.06892 20.291 8.89029 20.21 8.72829C20.129 8.56629 20.0114 8.42538 19.8665 8.31671L11.6998 2.19171C11.4979 2.04025 11.2523 1.95837 10.9998 1.95837C10.7474 1.95837 10.5018 2.04025 10.2998 2.19171L2.13317 8.31671C1.98828 8.42538 1.87067 8.56629 1.78967 8.72829C1.70867 8.89029 1.6665 9.06892 1.6665 9.25004V19.1667C1.6665 19.4761 1.78942 19.7729 2.00821 19.9917C2.22701 20.2105 2.52375 20.3334 2.83317 20.3334H7.49984C7.80926 20.3334 8.106 20.2105 8.32479 19.9917C8.54359 19.7729 8.6665 19.4761 8.6665 19.1667V15.6667C8.6665 15.3573 8.78942 15.0605 9.00821 14.8417C9.22701 14.623 9.52375 14.5 9.83317 14.5H12.1665C12.4759 14.5 12.7727 14.623 12.9915 14.8417C13.2103 15.0605 13.3332 15.3573 13.3332 15.6667V19.1667C13.3332 19.4761 13.4561 19.7729 13.6749 19.9917C13.8937 20.2105 14.1904 20.3334 14.4998 20.3334H19.1665C19.4759 20.3334 19.7727 20.2105 19.9915 19.9917C20.2103 19.7729 20.3332 19.4761 20.3332 19.1667Z" fill="#0673DD" stroke="#0673DD" stroke-width="2" stroke-linecap="round" stroke-linejoin="round"/>
</svg>
