<svg width="49" height="49" viewBox="0 0 49 49" fill="none" xmlns="http://www.w3.org/2000/svg">
<path d="M40.4355 13.501L40.6416 13.5186C41.0413 13.5759 41.3756 13.7695 41.7188 14.1523L41.8916 14.3594C42.3587 14.9604 42.7667 15.9066 43.0488 17.0859L43.1621 17.6055C43.676 20.2153 43.5795 23.5929 43.0293 26.3984L42.3965 26.5684L39.5732 16.0303L39.4434 15.5469L38.96 15.6768L37.5166 16.0645L37.0332 16.1943L37.1631 16.6768L39.9863 27.2148L39.3281 27.3916L36.5049 16.8516L36.375 16.3682L35.8926 16.498L34.4453 16.8857L33.9629 17.0146L34.0918 17.498L36.915 28.041L36.1992 28.2324L33.376 17.6895L33.2471 17.2061L32.7637 17.3359L31.3174 17.7236L30.835 17.8535L30.9639 18.3359L33.7871 28.8799L32.9531 29.1035L30.1279 18.5605L29.998 18.0771L29.5146 18.207L28.0713 18.5947L27.5889 18.7246L27.7178 19.207L30.5439 29.7529L29.9453 29.9121L27.1172 19.3662L26.9873 18.8828L26.5039 19.0127L25.0605 19.4004L24.5781 19.5303L24.707 20.0127L27.5332 30.5615L26.8145 30.7529L23.9883 20.2051L23.8594 19.7217L23.376 19.8516L21.9316 20.2393L21.4492 20.3691L21.5791 20.8516L24.4043 31.3994L23.6865 31.5928L20.8604 21.043L20.7305 20.5596L20.248 20.6895L18.8018 21.0771L18.3184 21.207L18.4482 21.6904L21.2764 32.2402L20.6182 32.417L17.792 21.8662L17.6631 21.3838L17.1797 21.5127L15.7334 21.9004L15.25 22.0303L15.3799 22.5127L18.2051 33.0664L17.667 33.2109L14.8389 22.6572L14.709 22.1738L14.2266 22.3037L12.7822 22.6914L12.2998 22.8213L12.4287 23.3037L15.2568 33.8574L14.5391 34.0508L11.7109 23.4961L11.5811 23.0127L11.0986 23.1416L9.6543 23.5273L9.1709 23.6562L9.30078 24.1396L12.1289 34.6982L11.5029 34.8662C9.75163 32.8584 8.11949 30.2608 7.22656 27.8984L7.05176 27.4111C6.65027 26.2258 6.46602 25.1541 6.50488 24.3125L6.53516 23.9658C6.59452 23.5188 6.70737 23.178 6.87598 22.9082C7.02124 22.6758 7.2209 22.476 7.50195 22.3027L7.62793 22.2295C16.7983 17.2463 27.7948 14.6607 39.0664 13.6064L40.1582 13.5098L40.3027 13.501C40.3481 13.4997 40.3927 13.4997 40.4355 13.501Z" fill="white" stroke="#554F4F"/>
</svg>
