<svg width="17" height="17" viewBox="0 0 17 17" fill="none" xmlns="http://www.w3.org/2000/svg">
<g clip-path="url(#clip0_1829_1176)">
<path d="M16.4914 8.79442C16.4914 8.12361 16.4369 7.6341 16.3191 7.12646H8.65918V10.1542H13.1554C13.0648 10.9066 12.5753 12.0397 11.4875 12.8011L11.4722 12.9025L13.8941 14.7787L14.0619 14.7955C15.603 13.3723 16.4914 11.2782 16.4914 8.79442Z" fill="#4285F4"/>
<path d="M8.6594 16.7715C10.8622 16.7715 12.7114 16.0463 14.0622 14.7953L11.4877 12.801C10.7987 13.2814 9.87409 13.6168 8.6594 13.6168C6.50194 13.6168 4.67082 12.1937 4.01807 10.2266L3.92239 10.2347L1.40403 12.1837L1.37109 12.2752C2.71271 14.9403 5.46848 16.7715 8.6594 16.7715Z" fill="#34A853"/>
<path d="M4.01818 10.2267C3.84594 9.71907 3.74627 9.17513 3.74627 8.61313C3.74627 8.05106 3.84594 7.50718 4.00911 6.99954L4.00455 6.89143L1.45463 4.91113L1.3712 4.95082C0.818256 6.05676 0.500977 7.2987 0.500977 8.61313C0.500977 9.92755 0.818256 11.1694 1.3712 12.2754L4.01818 10.2267Z" fill="#FBBC05"/>
<path d="M8.6594 3.6092C10.1914 3.6092 11.2248 4.27095 11.814 4.82395L14.1165 2.57581C12.7024 1.26138 10.8622 0.45459 8.6594 0.45459C5.46848 0.45459 2.71271 2.28571 1.37109 4.95081L4.00901 6.99954C4.67082 5.03243 6.50194 3.6092 8.6594 3.6092Z" fill="#EB4335"/>
</g>
<defs>
<clipPath id="clip0_1829_1176">
<rect width="16" height="16.3733" fill="white" transform="translate(0.5 0.45459)"/>
</clipPath>
</defs>
</svg>
