<svg width="22" height="22" viewBox="0 0 22 22" fill="none" xmlns="http://www.w3.org/2000/svg">
<path fill-rule="evenodd" clip-rule="evenodd" d="M11.0365 19.7997C16.0801 19.7793 20.1528 15.8442 20.1333 11.0105C20.1138 6.17655 16.0093 2.27459 10.9658 2.29494C5.92238 2.31528 1.8495 6.25042 1.869 11.0841C1.8885 15.9179 5.99299 19.82 11.0365 19.7997ZM11.0435 21.5502C17.0959 21.5258 21.9833 16.8036 21.9599 11.003C21.9365 5.2023 17.0111 0.519756 10.9588 0.544171C4.90638 0.568587 0.0189688 5.29061 0.0423691 11.0914C0.065769 16.8921 4.99122 21.5746 11.0435 21.5502Z" fill="#666666"/>
<path fill-rule="evenodd" clip-rule="evenodd" d="M11.0635 7.74343C10.7957 7.69339 10.5182 7.72074 10.2664 7.82189C10.0144 7.92305 9.79961 8.09341 9.64882 8.3116C9.37031 8.71479 8.80354 8.82519 8.38313 8.55821C7.96273 8.29142 7.84775 7.74826 8.12625 7.34524C8.47671 6.83837 8.9759 6.44248 9.56081 6.20751C10.1459 5.97257 10.7904 5.90897 11.4128 6.02522C12.0355 6.14128 12.608 6.43159 13.0582 6.85959C13.5084 7.28759 13.8161 7.83398 13.9422 8.42975C14.0684 9.02533 14.0074 9.64369 13.7668 10.2062C13.5264 10.7688 13.1174 11.2504 12.5913 11.5902C12.3232 11.7634 12.0309 11.8959 11.7246 11.9844L11.7257 12.2639C11.7276 12.7473 11.3204 13.1407 10.8161 13.1427C10.3117 13.1448 9.90131 12.7546 9.89936 12.2712L9.89522 11.2439C9.89327 10.7605 10.3005 10.3668 10.8048 10.3648C11.0778 10.3637 11.3444 10.2851 11.5708 10.1388C11.7972 9.99253 11.9732 9.78528 12.0767 9.54317C12.1803 9.30086 12.2065 9.0349 12.1522 8.77842C12.098 8.52212 11.9656 8.28685 11.7718 8.10254C11.5779 7.91844 11.3316 7.79346 11.0635 7.74343Z" fill="#666666"/>
<path fill-rule="evenodd" clip-rule="evenodd" d="M10.8175 13.9607C11.3218 13.9586 11.7324 14.349 11.7344 14.8324L11.736 15.2481C11.738 15.7315 11.3306 16.125 10.8262 16.127C10.322 16.129 9.91146 15.7389 9.90951 15.2555L9.90783 14.8397C9.90588 14.3563 10.3133 13.9627 10.8175 13.9607Z" fill="#666666"/>
</svg>
