<svg width="22" height="22" viewBox="0 0 22 22" fill="none" xmlns="http://www.w3.org/2000/svg">
<path d="M20.3334 19.1667V9.25004C20.3334 9.06892 20.2912 8.89029 20.2102 8.72829C20.1292 8.56629 20.0116 8.42538 19.8667 8.31671L11.7001 2.19171C11.4981 2.04025 11.2525 1.95837 11.0001 1.95837C10.7476 1.95837 10.502 2.04025 10.3001 2.19171L2.13341 8.31671C1.98852 8.42538 1.87092 8.56629 1.78992 8.72829C1.70892 8.89029 1.66675 9.06892 1.66675 9.25004V19.1667C1.66675 19.4761 1.78966 19.7729 2.00846 19.9917C2.22725 20.2105 2.524 20.3334 2.83341 20.3334H7.50008C7.8095 20.3334 8.10625 20.2105 8.32504 19.9917C8.54383 19.7729 8.66675 19.4761 8.66675 19.1667V15.6667C8.66675 15.3573 8.78966 15.0605 9.00846 14.8417C9.22725 14.623 9.52399 14.5 9.83341 14.5H12.1667C12.4762 14.5 12.7729 14.623 12.9917 14.8417C13.2105 15.0605 13.3334 15.3573 13.3334 15.6667V19.1667C13.3334 19.4761 13.4563 19.7729 13.6751 19.9917C13.8939 20.2105 14.1907 20.3334 14.5001 20.3334H19.1667C19.4762 20.3334 19.7729 20.2105 19.9917 19.9917C20.2105 19.7729 20.3334 19.4761 20.3334 19.1667Z" stroke="#727171" stroke-width="2" stroke-linecap="round" stroke-linejoin="round"/>
</svg>
