<svg width="14" height="18" viewBox="0 0 14 18" fill="none" xmlns="http://www.w3.org/2000/svg">
<path d="M12.7417 18H0.749423C0.550632 18 0.360025 17.9367 0.219432 17.8242C0.0790347 17.7116 0 17.5591 0 17.3999V0.600084C0 0.440946 0.0790347 0.28836 0.219432 0.175811C0.360016 0.0632693 0.550623 0 0.749423 0H12.7417C12.9405 0 13.1311 0.0632693 13.2717 0.175811C13.4123 0.288352 13.4911 0.440939 13.4911 0.600084V5.39998C13.4911 5.61435 13.3483 5.81233 13.1164 5.91953C12.8845 6.02673 12.5989 6.02671 12.367 5.91953C12.1351 5.81235 11.9923 5.61436 11.9923 5.39998V1.19993H1.49912V16.8001H11.9923V12.6C11.9923 12.3858 12.1351 12.1877 12.367 12.0805C12.5989 11.9733 12.8845 11.9733 13.1164 12.0805C13.3483 12.1877 13.4911 12.3858 13.4911 12.6V17.3999C13.4911 17.5591 13.4123 17.7116 13.2717 17.8242C13.1311 17.9367 12.9405 18 12.7417 18Z" fill="#666666"/>
</svg>
