<svg width="20" height="18" viewBox="0 0 20 18" fill="none" xmlns="http://www.w3.org/2000/svg">
<path fill-rule="evenodd" clip-rule="evenodd" d="M1.65625 1.46875H6.625V5.875H1.65625V1.46875ZM0 0H1.65625H6.625H8.28125V1.46875V5.875V7.34375H6.625H1.65625H0V5.875V1.46875V0ZM1.65625 11.75H6.625V16.1562H1.65625V11.75ZM0 10.2812H1.65625H6.625H8.28125V11.75V16.1562V17.625H6.625H1.65625H0V16.1562V11.75V10.2812ZM18.2188 1.46875H13.25V5.875H18.2188V1.46875ZM13.25 0H11.5938V1.46875V5.875V7.34375H13.25H18.2188H19.875V5.875V1.46875V0H18.2188H13.25ZM13.25 11.75H18.2188V16.1562H13.25V11.75ZM11.5938 10.2812H13.25H18.2188H19.875V11.75V16.1562V17.625H18.2188H13.25H11.5938V16.1562V11.75V10.2812Z" fill="#091C2E"/>
</svg>
