<svg width="20" height="31" viewBox="0 0 20 31" fill="none" xmlns="http://www.w3.org/2000/svg">
<path d="M10.0001 0.00537109C4.82328 0.00537109 0.614014 4.33842 0.614014 9.66748C0.614014 14.0708 3.49149 17.7862 7.41046 18.9469V20.3332H4.29358C3.88317 20.3332 3.52985 20.6157 3.52985 21.1219V22.995C3.35758 22.9952 3.19227 23.0657 3.07085 23.1916C3.07085 23.1916 2.82622 23.4531 2.62576 23.8658C2.42531 24.2785 2.23504 24.8846 2.23504 25.6621C2.23505 26.1889 2.32467 26.6312 2.44368 26.995H1.58385C1.41214 26.9957 1.24774 27.0666 1.12681 27.1921C1.00587 27.3176 0.938308 27.4874 0.938978 27.6641C0.938978 28.3306 0.913466 29.0367 1.12991 29.7051C1.23814 30.0393 1.42518 30.3789 1.73306 30.6254C2.04093 30.8719 2.44832 30.9951 2.87992 30.9951H17.1215C17.5531 30.9951 17.9605 30.8719 18.2683 30.6254C18.5762 30.3787 18.762 30.0393 18.8702 29.7051C19.0867 29.0367 19.0662 28.3306 19.0662 27.6641C19.0665 27.5763 19.05 27.4892 19.0175 27.408C18.9851 27.3267 18.9373 27.2528 18.877 27.1906C18.8168 27.1285 18.7451 27.0792 18.6663 27.0456C18.5874 27.012 18.5029 26.9948 18.4175 26.995H17.6816L17.1215 22.9377V20.9983C17.1202 20.6321 16.8324 20.3344 16.4766 20.3332H14.5306C14.5099 20.3318 14.4893 20.3318 14.4686 20.3332C14.1373 20.3671 13.8852 20.6555 13.8857 20.9983V22.9377L13.3256 26.995H12.5909V18.9469C16.5099 17.7862 19.3861 14.0708 19.3861 9.66748C19.3861 4.33842 15.1768 0.00537109 10.0001 0.00537109ZM10.0001 1.33953C14.4771 1.33953 18.0964 5.05877 18.0964 9.66748C18.0964 14.2762 14.4771 17.9967 10.0001 17.9967C5.52304 17.9967 1.91008 14.2762 1.91008 9.66748C1.91008 5.05877 5.52304 1.33953 10.0001 1.33953ZM10.0001 2.33792C6.07468 2.33792 2.87991 5.62664 2.87992 9.66748C2.88367 9.84167 2.95353 10.0074 3.07453 10.1292C3.19553 10.251 3.35806 10.3193 3.52732 10.3193C3.69657 10.3193 3.8591 10.251 3.9801 10.1292C4.1011 10.0074 4.17096 9.84167 4.17472 9.66748C4.17471 6.34696 6.77444 3.67081 10.0001 3.67081C10.1692 3.66688 10.3302 3.59491 10.4485 3.47035C10.5668 3.3458 10.633 3.17853 10.633 3.00434C10.633 2.83015 10.5668 2.66287 10.4485 2.53832C10.3302 2.41376 10.1692 2.34185 10.0001 2.33792ZM8.04521 5.66363C7.87747 5.66912 7.71834 5.74143 7.60139 5.86535L6.30659 7.19824C6.24413 7.2597 6.19421 7.33334 6.15978 7.41492C6.12536 7.49649 6.1071 7.58434 6.10609 7.67328C6.10509 7.76222 6.12135 7.85046 6.15392 7.93285C6.18649 8.01523 6.23472 8.09011 6.29577 8.15305C6.35683 8.21599 6.42948 8.26575 6.50946 8.29939C6.58945 8.33303 6.67516 8.34989 6.76156 8.34897C6.84795 8.34805 6.9333 8.32936 7.0126 8.29403C7.09189 8.2587 7.16354 8.20743 7.22332 8.14321L8.51939 6.80905C8.61369 6.71531 8.67812 6.59426 8.70417 6.462C8.73021 6.32974 8.71664 6.19248 8.66525 6.06833C8.61386 5.94418 8.52706 5.83903 8.41635 5.76676C8.30564 5.69449 8.17622 5.65854 8.04521 5.66363ZM10.6361 5.66363C10.4679 5.66878 10.3083 5.74112 10.191 5.86535L6.95652 9.19623C6.89209 9.25692 6.84026 9.33043 6.80413 9.41227C6.76801 9.49412 6.74835 9.58266 6.74632 9.67253C6.74429 9.7624 6.75995 9.85176 6.79235 9.93525C6.82474 10.0187 6.87321 10.0946 6.93483 10.1583C6.99646 10.222 7.06996 10.2722 7.15092 10.3059C7.23188 10.3396 7.31863 10.356 7.40594 10.3543C7.49325 10.3526 7.57933 10.3328 7.65898 10.2959C7.73864 10.2591 7.81023 10.206 7.86945 10.1399L11.1039 6.80905C11.1978 6.71568 11.262 6.59526 11.2882 6.46364C11.3144 6.33203 11.3014 6.19534 11.2508 6.07149C11.2002 5.94764 11.1144 5.84246 11.0047 5.76966C10.8951 5.69687 10.7665 5.65992 10.6361 5.66363ZM8.70526 19.2268C9.12975 19.2875 9.55957 19.3295 10.0001 19.3295C10.4404 19.3295 10.8705 19.2871 11.2949 19.2268V26.995H10.4414C10.5604 26.6312 10.65 26.1888 10.65 25.6621C10.65 24.8846 10.4585 24.2785 10.258 23.8658C10.0576 23.4531 9.81419 23.1915 9.81419 23.1915C9.69277 23.0659 9.52745 22.9954 9.35519 22.995V20.9983C9.35422 20.6298 9.06314 20.3317 8.70526 20.3331V19.2268ZM4.81959 21.6673H8.06039V22.995H4.81959V21.6673ZM15.1805 21.6673H15.8254V22.3311H15.1805V21.6673ZM15.0946 23.664H15.9127L16.3742 26.995H14.6318L15.0946 23.664ZM3.86367 24.3279H9.01632C9.04954 24.3785 9.04698 24.357 9.09724 24.4606C9.22049 24.7143 9.35519 25.1066 9.35519 25.662C9.35519 26.2174 9.22049 26.6136 9.09724 26.8673C9.06655 26.9306 9.04843 26.9527 9.0239 26.9949H3.85607C3.83155 26.9525 3.81343 26.9304 3.78274 26.8673C3.65949 26.6136 3.52985 26.2174 3.52985 25.662C3.52985 25.1066 3.65949 24.7143 3.78274 24.4606C3.833 24.357 3.83044 24.3785 3.86367 24.3279ZM5.40251 24.9969C5.23134 25.0071 5.07102 25.0865 4.95657 25.218C4.84212 25.3494 4.78285 25.5221 4.79171 25.6984C4.80056 25.8746 4.87682 26.0401 5.00382 26.1586C5.13083 26.2772 5.29825 26.3392 5.46953 26.3311H7.41046C7.49588 26.3316 7.58054 26.3147 7.6596 26.2814C7.73865 26.2481 7.81053 26.1991 7.8711 26.1371C7.93167 26.0751 7.97973 26.0014 8.01253 25.9202C8.04533 25.839 8.06222 25.752 8.06222 25.664C8.06222 25.5761 8.04533 25.4891 8.01253 25.4079C7.97973 25.3267 7.93167 25.253 7.8711 25.191C7.81053 25.129 7.73865 25.0799 7.6596 25.0466C7.58054 25.0133 7.49588 24.9964 7.41046 24.9969H5.46952C5.4472 24.9957 5.42483 24.9957 5.40251 24.9969ZM2.28689 28.3279H17.7183C17.7016 28.6756 17.7057 29.0866 17.6424 29.2819C17.5888 29.4475 17.5306 29.527 17.4743 29.5722C17.418 29.6173 17.3373 29.6606 17.1215 29.6606H2.87992C2.66411 29.6606 2.58722 29.6173 2.53093 29.5722C2.47463 29.5271 2.41765 29.4475 2.36402 29.2819C2.30077 29.0868 2.30364 28.6756 2.28689 28.3279Z" fill="#554F4F" fill-opacity="0.42"/>
</svg>
