<svg width="22" height="22" viewBox="0 0 22 22" fill="none" xmlns="http://www.w3.org/2000/svg">
<path d="M19.3462 7.8503L18.9802 7.6463L18.8672 7.58229C18.5946 7.41868 18.3649 7.19242 18.1972 6.9223C18.1792 6.8953 18.1632 6.8663 18.1312 6.8103C17.9156 6.46422 17.8109 6.06053 17.8312 5.6533L17.8372 5.2283C17.8492 4.5483 17.8552 4.2063 17.7592 3.9003C17.6742 3.62804 17.5321 3.37709 17.3422 3.1643C17.1282 2.9243 16.8312 2.7523 16.2362 2.4103L15.7422 2.1253C15.1502 1.7843 14.8532 1.6133 14.5382 1.5483C14.2599 1.49071 13.9725 1.49309 13.6952 1.5553C13.3822 1.6253 13.0892 1.8013 12.5042 2.1513L12.5012 2.1533L12.1472 2.3643C12.0912 2.3983 12.0622 2.4143 12.0342 2.4303C11.7562 2.5853 11.4462 2.6703 11.1272 2.6803C11.0952 2.6823 11.0622 2.6823 10.9972 2.6823L10.8672 2.6813C10.5481 2.67113 10.236 2.58472 9.95717 2.4293C9.92917 2.4143 9.90217 2.3973 9.84617 2.3633L9.48917 2.1493C8.90017 1.7953 8.60517 1.6193 8.29017 1.5483C8.01183 1.48599 7.72337 1.48395 7.44417 1.5423C7.12817 1.6083 6.83217 1.7803 6.23917 2.1243L6.23617 2.1253L5.74817 2.4083L5.74317 2.4123C5.15517 2.7523 4.86017 2.9243 4.64817 3.1633C4.45925 3.37569 4.31777 3.62592 4.23317 3.8973C4.13817 4.2043 4.14317 4.5463 4.15517 5.2303L4.16217 5.6543C4.16217 5.7193 4.16517 5.7513 4.16417 5.7823C4.159 6.14562 4.05494 6.50066 3.86317 6.8093C3.83017 6.8653 3.81517 6.8933 3.79817 6.9193C3.62956 7.19147 3.39808 7.41918 3.12317 7.5833L3.01117 7.6463L2.65017 7.84629C2.04817 8.17929 1.74717 8.34629 1.52917 8.58429C1.33535 8.79413 1.18873 9.04305 1.09917 9.3143C0.999174 9.6213 0.999174 9.9643 1.00017 10.6523L1.00217 11.2153C1.00317 11.8983 1.00517 12.2393 1.10617 12.5443C1.19536 12.8139 1.34092 13.0613 1.53317 13.2703C1.75117 13.5063 2.04917 13.6723 2.64617 14.0043L3.00417 14.2033C3.06517 14.2373 3.09617 14.2533 3.12517 14.2713C3.43855 14.4591 3.69448 14.7293 3.86517 15.0523L3.93217 15.1723C4.10109 15.4912 4.18056 15.8499 4.16217 16.2103L4.15517 16.6173C4.14317 17.3033 4.13817 17.6473 4.23417 17.9543C4.31917 18.2263 4.46117 18.4773 4.65117 18.6903C4.86517 18.9303 5.16317 19.1013 5.75717 19.4443L6.25117 19.7293C6.84417 20.0703 7.14017 20.2413 7.45517 20.3063C7.73348 20.3639 8.02086 20.3615 8.29817 20.2993C8.61217 20.2293 8.90517 20.0533 9.49217 19.7013L9.84617 19.4893L9.95917 19.4233C10.2372 19.2693 10.5472 19.1833 10.8662 19.1733L10.9962 19.1723H11.1262C11.4442 19.1823 11.7562 19.2693 12.0362 19.4243L12.1282 19.4793L12.5042 19.7053C13.0942 20.0593 13.3882 20.2353 13.7032 20.3053C13.9814 20.3683 14.2698 20.371 14.5492 20.3133C14.8642 20.2473 15.1622 20.0743 15.7552 19.7303L16.2502 19.4433C16.8382 19.1013 17.1332 18.9303 17.3452 18.6913C17.5352 18.4783 17.6752 18.2283 17.7602 17.9573C17.8552 17.6523 17.8502 17.3133 17.8382 16.6393L17.8302 16.1993V16.0723C17.8349 15.7087 17.9386 15.3533 18.1302 15.0443L18.1952 14.9343C18.3638 14.6621 18.5953 14.4344 18.8702 14.2703L18.9802 14.2093L18.9822 14.2083L19.3432 14.0083C19.9452 13.6743 20.2462 13.5083 20.4652 13.2703C20.6592 13.0603 20.8052 12.8103 20.8942 12.5403C20.9942 12.2353 20.9942 11.8933 20.9922 11.2133L20.9902 10.6393C20.9892 9.9563 20.9882 9.6143 20.8872 9.3093C20.7976 9.04 20.6517 8.79286 20.4592 8.58429C20.2422 8.34829 19.9442 8.18229 19.3482 7.85129L19.3462 7.8503Z" stroke="#666666" stroke-width="2" stroke-linecap="round" stroke-linejoin="round"/>
<path d="M6.99609 10.9272C6.99609 11.9881 7.41752 13.0055 8.16767 13.7557C8.91781 14.5058 9.93523 14.9272 10.9961 14.9272C12.057 14.9272 13.0744 14.5058 13.8245 13.7557C14.5747 13.0055 14.9961 11.9881 14.9961 10.9272C14.9961 9.86638 14.5747 8.84896 13.8245 8.09882C13.0744 7.34867 12.057 6.92725 10.9961 6.92725C9.93523 6.92725 8.91781 7.34867 8.16767 8.09882C7.41752 8.84896 6.99609 9.86638 6.99609 10.9272Z" stroke="#666666" stroke-width="2" stroke-linecap="round" stroke-linejoin="round"/>
</svg>
