<svg width="26" height="33" viewBox="0 0 26 33" fill="none" xmlns="http://www.w3.org/2000/svg">
<path d="M16.9364 28.4391H26.9545C28.0742 28.4391 29.0833 27.7878 29.0833 27.0182V6.9699L34.1781 27.0873C34.3481 27.7565 35.1634 28.2219 36.151 28.2219C36.151 28.2219 36.1387 28.2219 36.139 28.2219C36.257 28.2219 36.3701 28.2347 36.4864 28.2206L46.3531 27.0413C47.4529 26.9066 48.1905 26.1873 47.9992 25.4304L41.7955 1.15236C41.6238 0.483901 40.7832 0 39.7963 0C39.679 0 39.5601 0.00760223 39.4438 0.0217284L29.5749 1.21194C29.2025 1.25685 28.8633 1.42065 28.5867 1.58811C28.2161 1.2452 27.6228 1.0738 26.9548 1.0738H16.9368C15.8167 1.0738 14.8579 1.59744 14.8579 2.36667V27.018C14.8579 27.7878 15.8167 28.4391 16.9364 28.4391ZM29.2995 2.28369C29.4165 2.16879 29.592 2.09212 29.793 2.06781L39.6623 0.878085C39.7071 0.872639 39.7521 0.870051 39.7959 0.870051C40.1677 0.870051 40.4844 1.05315 40.5493 1.30532L46.7518 25.5849C46.8241 25.8709 46.5444 26.145 46.1299 26.1958L36.2614 27.3851C35.8444 27.4357 35.4467 27.2405 35.3749 26.9577L29.1731 2.67701C29.1374 2.5385 29.1823 2.3988 29.2995 2.28369ZM16.1224 2.36667C16.1224 2.07627 16.5137 1.94229 16.9364 1.94229H26.9546C27.3776 1.94251 27.8193 2.07627 27.8193 2.36667V27.018C27.8193 27.3086 27.3776 27.5701 26.9549 27.5701H16.9368C16.5141 27.5701 16.1227 27.3086 16.1227 27.018V2.36667H16.1224Z" fill="#949494"/>
<path d="M46.5476 28.8735H1.53272C0.960839 28.8735 0.632324 29.1033 0.632324 29.4962V32.2758C0.632324 32.6678 0.960839 33.0001 1.53272 33.0001H46.5475C47.1187 33.0001 47.7355 32.6678 47.7355 32.2758V29.496C47.7355 29.1033 47.1184 28.8735 46.5476 28.8735ZM46.471 32.1313H1.89686V29.7422H46.471V32.1313Z" fill="#949494"/>
<path d="M18.8593 13.8877H25.032C26.1518 13.8877 27.1868 13.3011 27.1868 12.5318V4.68814C27.1868 3.91843 26.1518 3.24561 25.032 3.24561H18.8593C17.7396 3.24561 16.7549 3.91843 16.7549 4.68814V12.5318C16.7549 13.301 17.7396 13.8877 18.8593 13.8877ZM18.0193 4.68814C18.0193 4.39732 18.4366 4.11431 18.8593 4.11431H25.032C25.4547 4.11431 25.9222 4.39732 25.9222 4.68814V12.5318C25.9222 12.8222 25.4547 13.019 25.032 13.019H18.8593C18.4366 13.019 18.0193 12.8222 18.0193 12.5318V4.68814Z" fill="#949494"/>
<path d="M2.05326 28.4393H12.0717C13.1911 28.4393 14.2255 27.788 14.2255 27.0184V2.36686C14.2255 1.59758 13.1908 1.07373 12.0717 1.07373H2.05326C0.93414 1.07395 0 1.59758 0 2.36686V27.0182C0 27.788 0.934219 28.4393 2.05326 28.4393ZM1.26454 2.36686C1.26454 2.07647 1.63119 1.9427 2.05326 1.9427H12.0717C12.4937 1.9427 12.9613 2.07647 12.9613 2.36686V27.0182C12.9613 27.3088 12.4937 27.5703 12.072 27.5703H2.05326C1.63119 27.5705 1.26454 27.309 1.26454 27.0182V2.36686Z" fill="#949494"/>
<path d="M3.97519 13.8877H10.1492C11.2689 13.8877 12.3292 13.3011 12.3292 12.5318V4.68814C12.3292 3.91843 11.2689 3.24561 10.1492 3.24561H3.97519C2.85607 3.24561 1.89697 3.91821 1.89697 4.68814V12.5318C1.89689 13.301 2.85607 13.8877 3.97519 13.8877ZM3.16143 4.68814C3.16143 4.39732 3.55312 4.11431 3.97519 4.11431H10.1492C10.5715 4.11431 11.0647 4.39732 11.0647 4.68814V12.5318C11.0647 12.8222 10.5719 13.019 10.1492 13.019H3.97519C3.55312 13.019 3.16143 12.8222 3.16143 12.5318V4.68814Z" fill="#949494"/>
</svg>
